HIERARCHY
ROOT Hips
{
	OFFSET 0.000000 0.000000 0.000000 
	CHANNELS 6 Xposition Yposition Zposition Zrotation Yrotation Xrotation
	JOINT LeftUpLeg
	{
		OFFSET 1.363060 -1.794630 0.839290 
		CHANNELS 3 Zrotation Yrotation Xrotation
		JOINT LeftLeg
		{
			OFFSET 2.448110 -6.726130 0.000000 
			CHANNELS 3 Zrotation Yrotation Xrotation
			JOINT LeftFoot
			{
				OFFSET 2.562200 -7.039590 0.000000 
				CHANNELS 3 Zrotation Yrotation Xrotation
				JOINT LeftToeBase
				{
					OFFSET 0.157640 -0.433110 2.322550 
					CHANNELS 3 Zrotation Yrotation Xrotation
					End Site
					{
						OFFSET 0.000000 0.000000 0.000000 
					}
				}
			}
		}
	}
	JOINT RightUpLeg
	{
		OFFSET -1.305520 -1.794630 0.839290 
		CHANNELS 3 Zrotation Yrotation Xrotation
		JOINT RightLeg
		{
			OFFSET -2.542530 -6.985550 0.000000 
			CHANNELS 3 Zrotation Yrotation Xrotation
			JOINT RightFoot
			{
				OFFSET -2.568260 -7.056230 0.000000 
				CHANNELS 3 Zrotation Yrotation Xrotation
				JOINT RightToeBase
				{
					OFFSET -0.164730 -0.452590 2.363150 
					CHANNELS 3 Zrotation Yrotation Xrotation
					End Site
					{
						OFFSET 0.000000 0.000000 0.000000 
					}
				}
			}
		}
	}
	JOINT Spine
	{
		OFFSET 0.028270 2.035590 -0.193380 
		CHANNELS 3 Zrotation Yrotation Xrotation
		JOINT Spine1
		{
			OFFSET 0.056720 2.048850 -0.042750 
			CHANNELS 3 Zrotation Yrotation Xrotation
			JOINT Neck1
			{
				OFFSET -0.054170 1.746240 0.172020 
				CHANNELS 3 Zrotation Yrotation Xrotation
				JOINT Head
				{
					OFFSET 0.104070 1.761360 -0.123970 
					CHANNELS 3 Zrotation Yrotation Xrotation
					End Site
					{
						OFFSET 0.000000 0.000000 0.000000 
					}
				}
			}
			JOINT LeftArm
			{
				OFFSET 3.362410 1.200890 -0.311210 
				CHANNELS 3 Zrotation Yrotation Xrotation
				JOINT LeftForeArm
				{
					OFFSET 4.983000 -0.000000 -0.000000 
					CHANNELS 3 Zrotation Yrotation Xrotation
					JOINT LeftHand
					{
						OFFSET 3.483560 -0.000000 -0.000000 
						CHANNELS 3 Zrotation Yrotation Xrotation
						JOINT LeftHandIndex1
						{
							OFFSET 0.715260 -0.000000 -0.000000 
							CHANNELS 3 Zrotation Yrotation Xrotation
							End Site
							{
								OFFSET 0.000000 0.000000 0.000000 
							}
						}
					}
				}
			}
			JOINT RightArm
			{
				OFFSET -3.136600 1.374050 -0.404650 
				CHANNELS 3 Zrotation Yrotation Xrotation
				JOINT RightForeArm
				{
					OFFSET -5.241900 -0.000000 -0.000000 
					CHANNELS 3 Zrotation Yrotation Xrotation
					JOINT RightHand
					{
						OFFSET -3.444170 -0.000000 -0.000000 
						CHANNELS 3 Zrotation Yrotation Xrotation
						JOINT RightHandIndex1
						{
							OFFSET -0.622530 -0.000000 -0.000000 
							CHANNELS 3 Zrotation Yrotation Xrotation
							End Site
							{
								OFFSET 0.000000 0.000000 0.000000 
							}
						}
					}
				}
			}
		}
	}
}
MOTION
Frames: 12
Frame Time: 0.041667
-4.604448 17.996566 -5.696521 24.443173 -46.864576 -1.216614 -22.149126 -9.859079 -21.843511 -0.794780 4.103911 14.040784 0.911024 -2.631166 18.849664 0.234900 -3.119100 -8.610400 1.665693 8.945576 -35.030567 -3.036836 -11.870912 34.592941 -0.367665 -1.448904 -11.613840 -0.869200 -5.944600 16.623700 9.168120 3.442309 4.553756 8.368223 2.007911 -0.687750 3.356059 -18.719955 24.751216 1.094700 -9.252800 12.744400 -73.263255 -4.439606 72.591234 62.188280 -57.714566 -38.649764 0.758198 -0.572155 -61.452454 -7.125000 0.000000 0.000000 65.447908 34.386241 10.735128 -21.781411 27.385216 -6.403644 0.955301 1.401254 -22.669610 7.125000 0.000000 0.000000 
-4.610634 17.996866 -5.696621 24.341781 -46.802654 -1.221163 -22.160426 -9.806852 -21.828371 -0.775620 4.164835 14.219756 0.903338 -2.718900 18.647716 0.244800 -3.183700 -8.790700 1.679577 9.105004 -34.850382 -3.042494 -11.868466 34.615784 -0.382701 -1.435066 -11.801926 -0.924800 -6.126500 17.151800 9.131954 3.735002 4.662750 8.118068 2.154701 -0.631044 3.308831 -19.090684 24.822162 0.968000 -9.365500 12.794000 -72.885576 -4.050257 72.216182 63.151209 -57.961753 -39.476442 0.763022 -0.547541 -64.447893 -7.125000 0.000000 0.000000 66.095410 35.063809 12.557656 -21.590314 27.147343 -6.272725 0.829413 1.443953 -22.448138 7.125000 0.000000 0.000000 
-4.617518 17.996866 -5.703306 24.307165 -46.760129 -1.272508 -22.244531 -9.507911 -21.804382 -0.782374 4.141958 14.179504 0.935628 -3.052170 18.674581 0.263300 -3.301300 -9.118800 1.671015 9.284039 -34.723943 -3.068261 -11.895996 34.732173 -0.402074 -1.420983 -12.047709 -0.933100 -6.153200 17.229500 9.115360 4.011068 4.758690 7.988386 2.291203 -0.634151 3.249675 -19.450343 24.835952 0.849700 -9.482600 12.814500 -72.637718 -3.605109 71.563512 63.949320 -58.159774 -40.163139 0.767278 -0.525092 -66.474625 -7.125000 0.000000 0.000000 66.804366 35.807767 14.250560 -21.350864 26.849165 -6.119629 0.706349 1.480394 -22.075594 7.125000 0.000000 0.000000 
-4.622506 17.993673 -5.709292 24.467260 -46.620559 -1.313576 -22.448004 -9.407922 -21.899869 -0.785065 4.130017 14.154637 0.958378 -3.232836 18.782095 0.263900 -3.304700 -9.128300 1.522581 9.270824 -34.805771 -3.088335 -11.929088 34.820246 -0.409622 -1.430789 -12.175247 -0.931000 -6.146500 17.210200 9.104746 4.201905 4.781877 7.993012 2.384667 -0.645021 3.358686 -19.718121 24.638238 0.835200 -9.563400 12.737500 -72.593756 -3.092378 70.779954 64.424857 -58.277290 -40.574410 0.770210 -0.514006 -67.731570 -7.125000 0.000000 0.000000 67.507025 36.495935 15.903393 -21.129345 26.570825 -5.977870 0.602634 1.498190 -21.687823 7.125000 0.000000 0.000000 
-4.627594 17.989183 -5.707895 24.540935 -46.479651 -1.292850 -22.497230 -9.740354 -21.813888 -0.785924 4.117652 14.103444 0.904467 -2.766724 18.656902 0.223900 -3.045700 -8.405900 1.381691 9.345760 -34.844621 -3.107369 -11.958179 34.903074 -0.426636 -1.416635 -12.372793 -0.959400 -6.237000 17.473500 9.118740 4.359356 4.829428 7.975325 2.460069 -0.564758 3.521719 -19.984639 24.487999 0.842700 -9.641600 12.699200 -72.619447 -2.627170 70.003980 64.709328 -58.347855 -40.820051 0.772510 -0.509891 -68.596654 -7.125000 0.000000 0.000000 68.068420 36.967912 17.619941 -21.071889 26.492961 -5.928931 0.535922 1.503117 -21.589731 7.125000 0.000000 0.000000 
-4.633780 17.985791 -5.704403 24.503978 -46.324468 -1.218849 -22.513931 -9.978240 -21.745851 -0.786600 4.109198 14.074953 0.872662 -2.551185 18.521498 0.241800 -3.164200 -8.736300 1.342342 9.401025 -34.829242 -3.121473 -11.978074 34.969928 -0.432310 -1.460243 -12.561181 -0.940300 -6.176200 17.296600 9.132342 4.496155 4.883178 7.907513 2.527994 -0.470933 3.463412 -20.228213 24.594690 0.743600 -9.714600 12.762100 -72.632762 -2.216745 69.220748 65.016902 -58.423044 -41.085260 0.774318 -0.507546 -69.523798 -7.125000 0.000000 0.000000 68.633474 37.436183 19.198227 -21.019204 26.417963 -5.884619 0.498612 1.501026 -21.632249 7.125000 0.000000 0.000000 
-4.640664 17.985592 -5.701809 24.485265 -46.181954 -1.117994 -22.573584 -10.135321 -21.792097 -0.777468 4.136708 14.149353 0.858028 -2.521752 18.372826 0.272100 -3.355100 -9.269000 1.296093 9.430568 -34.846563 -3.123991 -11.984188 34.985036 -0.420013 -1.575253 -12.681030 -0.927900 -6.136500 17.181100 9.134979 4.623498 4.877844 7.844928 2.592781 -0.447707 3.414244 -20.439029 24.637307 0.677100 -9.788700 12.777200 -72.636916 -1.815451 68.460702 65.217115 -58.472376 -41.263665 0.777156 -0.501923 -70.473238 -7.125000 0.000000 0.000000 69.256146 37.948371 20.586890 -20.870972 26.227361 -5.793447 0.490383 1.498512 -21.578126 7.125000 0.000000 0.000000 
-4.646850 17.985193 -5.702408 24.495010 -46.061828 -1.045987 -22.668365 -10.191517 -21.913792 -0.758013 4.200449 14.308347 0.828611 -2.304013 18.253140 0.231400 -3.096400 -8.547200 1.236367 9.496888 -34.848682 -3.118061 -11.977589 34.961393 -0.387730 -1.773493 -12.742018 -0.895700 -6.032100 16.877600 9.172330 4.777149 4.840986 7.855879 2.669438 -0.523775 3.548884 -20.711434 24.401457 0.713700 -9.899100 12.675200 -72.715989 -1.410994 67.826689 65.169602 -58.465079 -41.229866 0.779833 -0.503000 -71.331743 -7.125000 0.000000 0.000000 69.629451 38.312593 21.902027 -20.736477 26.063857 -5.720662 0.489932 1.511732 -21.529371 7.125000 0.000000 0.000000 
-4.652437 17.986988 -5.702607 24.485364 -45.970003 -1.060016 -22.783452 -10.124311 -21.969424 -0.735657 4.270376 14.491890 0.804488 -2.125461 18.163394 0.214500 -2.981400 -8.227000 1.223648 9.541012 -34.738735 -3.109347 -11.960938 34.920964 -0.367267 -1.894527 -12.771942 -0.867800 -5.939700 16.609700 9.221445 4.959643 4.861861 7.855691 2.756083 -0.600588 3.910188 -21.028026 24.120067 0.825600 -10.007700 12.604100 -72.888395 -1.055359 67.157101 65.081508 -58.443785 -41.173764 0.786211 -0.478149 -72.100910 -7.125000 0.000000 0.000000 69.794712 38.686308 23.098684 -20.620684 25.913084 -5.655208 0.501692 1.517954 -21.425530 7.125000 0.000000 0.000000 
-4.658523 17.991877 -5.699614 24.482458 -45.919008 -1.134497 -22.904121 -10.040468 -21.957574 -0.715303 4.330215 14.670103 0.800809 -2.220735 18.008856 0.306900 -3.561600 -9.846300 1.212818 9.586129 -34.551141 -3.098269 -11.937235 34.864647 -0.368651 -1.909614 -12.829741 -0.889600 -6.012000 16.819200 9.233608 5.168175 4.903761 7.792239 2.856722 -0.667167 4.158582 -21.320778 23.938945 0.872900 -10.100100 12.562800 -73.004832 -0.758706 66.501847 65.083957 -58.429706 -41.211766 0.793149 -0.389451 -72.778250 -7.125000 0.000000 0.000000 69.988986 39.142022 24.018358 -20.451886 25.690140 -5.564500 0.540566 1.521685 -21.093762 7.125000 0.000000 0.000000 
-4.664908 17.994172 -5.699415 24.545069 -45.887256 -1.201414 -23.018052 -10.016581 -21.984148 -0.698398 4.380172 14.802449 0.777492 -2.074079 17.894087 0.307600 -3.565900 -9.858500 1.150596 9.648109 -34.430608 -3.084174 -11.912620 34.792356 -0.371895 -1.900132 -12.849977 -0.919700 -6.110200 17.104500 9.222450 5.395108 4.944415 7.758885 2.965622 -0.719987 4.305662 -21.653877 23.826942 0.865000 -10.211600 12.554100 -73.021091 -0.621452 66.145101 65.063668 -58.423339 -41.198398 0.794611 -0.382459 -73.192003 -7.125000 0.000000 0.000000 70.211174 39.612507 24.751607 -20.295096 25.478251 -5.482617 0.584901 1.525813 -20.646736 7.125000 0.000000 0.000000 
-4.670894 17.995369 -5.697619 24.532380 -45.808384 -1.171606 -23.066921 -10.051415 -22.004121 -0.687711 4.412598 14.876362 0.744466 -1.796377 17.817860 0.251600 -3.227700 -8.913400 1.130225 9.703325 -34.348191 -3.067472 -11.886676 34.714267 -0.355181 -1.977742 -12.821155 -0.879900 -5.980000 16.726300 9.233332 5.542497 4.973223 7.734066 3.036276 -0.743982 4.406674 -21.899288 23.817378 0.853500 -10.293600 12.597100 -73.047899 -0.553956 65.910372 65.009930 -58.411205 -41.154260 0.795810 -0.384266 -73.462662 -7.125000 0.000000 0.000000 70.354442 39.901276 25.647084 -20.265351 25.430034 -5.463967 0.601867 1.528048 -20.339085 7.125000 0.000000 0.000000 
